# xmcd
#
# Track frame offsets: 
#        150
#        13325
#        24640
#        38627
#        50755
#        64577
#        77050
#        91140
#        104027
#        119202
#        133485
#        156610
#        170842
#        182982
#        196322
#        209405
#        219492
#        233047
#
# Disc length: 3259 seconds
#
# Revision: 0
# Processed by: cddbd v1.4PL0 Copyright (c) Steve Scherf et al.
# Submitted via: ExactAudioCopy v0.95a3
#
DISCID=190cb912
DTITLE=Various Artist - Harmonica Chicago blues
DYEAR=2002
DGENRE=Blues
TTITLE0=Bobo Thomas and Sonny Boy Williamson/catfish blues
TTITLE1=Brownie MC Ghee/ I want to see Jesus
TTITLE2=Sonny Terry/All alone Blues
TTITLE3=Blind Boy Fuller/ Twelve gates to the city
TTITLE4=Sonny Boy Williamson/Bring another half a pint
TTITLE5=Yanck Rachell and Boy Williamson/Tappin' that thing
TTITLE6=Jimmy Rogers/Today Today Blues
TTITLE7=Brownie Mc Ghee/Goodbye now
TTITLE8=Big Joe Williams/Wanita
TTITLE9=Robert Nighthawk and Big Jhoe Mc Coy/What Will I do?
TTITLE10=Leroy Williams/Uncle Sam done called
TTITLE11=Sonny Boy Williamson/Sugar mama blues N. 2
TTITLE12=Sonny Boy Williamson/She don't love me that baby
TTITLE13=Yanck Rachell and Sonny Boy Williamson/Hobo blues
TTITLE14=Memphis minnie and Memphis j. band/Bumble bee blues
TTITLE15=Little Walter/It's the bllues baby
TTITLE16=Sleepy John Estes/Someday baby
TTITLE17=Rhythm Willie/Breathtaking Blues
EXTD=
EXTT0=
EXTT1=
EXTT2=
EXTT3=
EXTT4=
EXTT5=
EXTT6=
EXTT7=
EXTT8=
EXTT9=
EXTT10=
EXTT11=
EXTT12=
EXTT13=
EXTT14=
EXTT15=
EXTT16=
EXTT17=
PLAYORDER=
